<?xml version="1.0" encoding="UTF-8"?> <svg xmlns="http://www.w3.org/2000/svg" width="161" height="33" viewBox="0 0 161 33" fill="none"><path d="M24.8252 32.9816C20.4126 32.9816 15.9999 33.023 11.5903 32.9816C8.99132 32.9565 6.47498 32.0664 4.43945 30.4522C2.40392 28.8381 0.96545 26.5921 0.351664 24.0696C-1.32525 17.4379 3.17906 10.6527 9.94884 9.65429C10.4398 9.58045 10.5758 9.40025 10.6557 8.93353C11.0304 6.53684 12.2196 4.34199 14.0234 2.71772C15.8272 1.09344 18.1358 0.138732 20.5613 0.0139849C22.9867 -0.110763 25.3813 0.602053 27.3426 2.03267C29.304 3.46329 30.7126 5.52454 31.3318 7.87011C31.3608 8.04609 31.4458 8.20806 31.5741 8.33202C31.7025 8.45599 31.8675 8.53536 32.0445 8.55838C34.8268 9.21697 36.761 10.8585 37.8743 13.4018C38.016 13.7254 38.0737 14.1152 38.3507 14.3345V14.3345C38.4909 14.4454 38.6651 14.5045 38.8439 14.5017C43.6558 14.9241 47.4503 19.1926 47.2876 23.9691C47.2293 26.3473 46.2534 28.611 44.5637 30.2877C42.8741 31.9643 40.6012 32.9241 38.2199 32.9668C33.7451 33.0289 29.2852 32.9816 24.8252 32.9816Z" fill="url(#paint0_linear_26_6109)"></path><path fill-rule="evenodd" clip-rule="evenodd" d="M24.2779 13.9975C24.4614 13.8078 24.6808 13.6564 24.9235 13.5523C25.1662 13.4482 25.4271 13.3934 25.6912 13.3911C25.9553 13.3888 26.2172 13.4391 26.4617 13.539C26.7061 13.6388 26.9282 13.7863 27.1149 13.9729C27.3017 14.1594 27.4494 14.3812 27.5494 14.6253C27.6494 14.8695 27.6997 15.1311 27.6974 15.3948C27.6951 15.6586 27.6402 15.9193 27.536 16.1616C27.4318 16.404 27.2802 16.6232 27.0903 16.8065L24.1068 19.7863C23.7339 20.1587 23.2281 20.3679 22.7007 20.3679C22.1733 20.3679 21.6675 20.1587 21.2945 19.7863C21.1069 19.6053 20.8557 19.5052 20.595 19.5075C20.3342 19.5097 20.0848 19.6142 19.9004 19.7984C19.716 19.9825 19.6114 20.2316 19.6092 20.4921C19.6069 20.7525 19.7071 21.0034 19.8883 21.1907C20.6343 21.9356 21.6459 22.354 22.7007 22.354C23.7555 22.354 24.7671 21.9356 25.513 21.1907L28.4964 18.2109C29.2211 17.4616 29.622 16.458 29.6129 15.4163C29.6039 14.3745 29.1855 13.378 28.448 12.6414C27.7105 11.9048 26.7128 11.4869 25.6698 11.4779C24.6268 11.4688 23.622 11.8693 22.8717 12.593L21.38 14.0829C21.285 14.1745 21.2093 14.2841 21.1571 14.4053C21.105 14.5265 21.0776 14.6568 21.0764 14.7887C21.0753 14.9206 21.1005 15.0514 21.1505 15.1735C21.2005 15.2955 21.2743 15.4064 21.3677 15.4997C21.4611 15.593 21.5721 15.6667 21.6943 15.7167C21.8165 15.7666 21.9475 15.7917 22.0795 15.7906C22.2116 15.7894 22.3421 15.762 22.4634 15.71C22.5847 15.6579 22.6945 15.5823 22.7862 15.4874L24.2779 13.9975V13.9975ZM19.3055 18.9638C19.6785 18.5914 20.1843 18.3822 20.7117 18.3822C21.2391 18.3822 21.7449 18.5914 22.1179 18.9638C22.2096 19.0587 22.3194 19.1344 22.4407 19.1864C22.562 19.2385 22.6925 19.2659 22.8246 19.267C22.9566 19.2682 23.0876 19.243 23.2098 19.1931C23.332 19.1432 23.443 19.0694 23.5364 18.9761C23.6298 18.8829 23.7036 18.772 23.7536 18.6499C23.8036 18.5278 23.8288 18.3971 23.8277 18.2652C23.8265 18.1333 23.7991 18.0029 23.747 17.8818C23.6948 17.7606 23.6191 17.651 23.5241 17.5594C22.7781 16.8145 21.7665 16.3961 20.7117 16.3961C19.6569 16.3961 18.6453 16.8145 17.8994 17.5594L14.9159 20.5392C14.536 20.9057 14.233 21.3441 14.0245 21.8288C13.816 22.3135 13.7063 22.8349 13.7017 23.3624C13.6971 23.89 13.7977 24.4131 13.9978 24.9014C14.1978 25.3897 14.4931 25.8333 14.8666 26.2063C15.2401 26.5794 15.6843 26.8744 16.1731 27.0742C16.662 27.2739 17.1858 27.3744 17.714 27.3699C18.2422 27.3653 18.7642 27.2557 19.2495 27.0475C19.7348 26.8392 20.1737 26.5365 20.5407 26.1571L22.0324 24.6672C22.1274 24.5756 22.2031 24.466 22.2552 24.3448C22.3074 24.2236 22.3348 24.0932 22.3359 23.9614C22.3371 23.8295 22.3119 23.6987 22.2619 23.5766C22.2119 23.4545 22.1381 23.3436 22.0447 23.2504C21.9513 23.1571 21.8403 23.0834 21.7181 23.0334C21.5959 22.9835 21.4649 22.9584 21.3329 22.9595C21.2008 22.9606 21.0703 22.988 20.949 23.0401C20.8277 23.0922 20.7179 23.1678 20.6262 23.2627L19.1345 24.7526C18.951 24.9423 18.7315 25.0937 18.4889 25.1978C18.2462 25.3019 17.9852 25.3567 17.7211 25.359C17.4571 25.3613 17.1952 25.311 16.9507 25.2111C16.7063 25.1112 16.4842 24.9637 16.2975 24.7772C16.1107 24.5907 15.963 24.3689 15.863 24.1248C15.763 23.8806 15.7127 23.619 15.715 23.3553C15.7173 23.0915 15.7722 22.8308 15.8764 22.5885C15.9806 22.3461 16.1322 22.1269 16.3221 21.9436L19.3055 18.9638Z" fill="white"></path><path d="M66.372 21.696H58.1817V7.52425H54.04V25.4499H66.372V21.696Z" fill="#3C3C3C"></path><path d="M68.1201 9.3379C68.1201 10.5821 69.0275 11.4046 70.4236 11.4046C71.7964 11.4046 72.6806 10.5821 72.6806 9.3379C72.6806 8.09365 71.7964 7.27118 70.4236 7.27118C69.0275 7.27118 68.1201 8.09365 68.1201 9.3379ZM72.4945 25.4499V12.7965H68.3528V25.4499H72.4945Z" fill="#3C3C3C"></path><path d="M83.6291 19.1021V25.4499H87.7475V19.1021C87.7475 15.2217 85.5371 12.6489 81.9771 12.6489C80.6741 12.6489 79.278 13.1972 78.8126 13.9775V12.7965H74.671V25.4499H78.8126V19.1232C78.8126 17.5415 79.8364 16.3816 81.2325 16.3816C82.6751 16.3816 83.6291 17.4782 83.6291 19.1021Z" fill="#3C3C3C"></path><path d="M89.5022 19.5661C89.4557 23.4675 93.0855 25.5764 96.7386 25.5764C100.299 25.5342 103.882 23.8682 103.859 20.0933C103.859 16.3394 100.88 15.3272 97.9252 14.6945C95.7148 14.2305 94.1558 13.9564 94.1326 12.8176C94.1326 11.5944 95.296 11.0039 96.599 11.0039C97.9252 11.0039 99.1584 11.4046 99.2748 12.7965H103.393C103.416 8.91612 100.066 7.4188 96.599 7.4188C92.9692 7.4188 89.9909 9.06374 90.0141 12.9019C90.0141 17.0143 94.1326 17.5837 97.2039 18.2164C98.949 18.596 99.7168 19.081 99.7401 20.1355C99.7401 21.696 98.1114 22.0124 96.692 22.0124C95.2261 22.0124 93.6672 21.0212 93.6207 19.5661H89.5022Z" fill="#3C3C3C"></path><path d="M114.56 19.1021V25.4499H118.679V19.1021C118.679 15.2217 116.491 12.6489 112.908 12.6489C111.605 12.6489 110.209 13.1972 109.744 13.9775V7.52425H105.602V25.4499H109.744V19.1232C109.744 17.5415 110.768 16.3816 112.164 16.3816C113.606 16.3816 114.56 17.4782 114.56 19.1021Z" fill="#3C3C3C"></path><path d="M131.03 25.4499H135.172V12.7965H131.03V13.9775C130.495 13.2183 128.936 12.6489 127.424 12.6489C123.306 12.6489 120.769 15.2217 120.769 19.1021C120.769 23.0036 123.306 25.5764 127.424 25.5764C128.936 25.5764 130.519 24.9859 131.03 24.2689V25.4499ZM124.911 19.1021C124.911 17.4572 126.098 16.3816 127.982 16.3816C129.751 16.3816 131.03 17.5626 131.03 19.1232C131.054 20.7049 129.797 21.8226 127.982 21.8226C126.098 21.8226 124.911 20.7681 124.911 19.1021Z" fill="#3C3C3C"></path><path d="M146.09 12.6489C144.135 12.6489 142.6 13.4502 141.692 14.3993V12.7965H137.55V25.4499H141.692V19.545C141.692 17.4572 143.205 16.4027 146.09 16.3816V12.6489Z" fill="#3C3C3C"></path><path d="M156.114 21.5695C155.788 21.8437 155.067 22.0545 154.159 22.0545C152.973 22.0545 152.019 21.4219 151.6 20.4096H160.907C160.977 20.0089 161 19.545 161 19.1021C161 15.4115 158.045 12.6278 154.113 12.6278C150.18 12.6278 147.202 15.4115 147.202 19.081C147.202 22.877 150.087 25.5553 154.182 25.5553C157.044 25.5553 159.534 23.9315 160.488 21.5695H156.114ZM151.6 17.7313C152.019 16.7612 152.926 16.1496 154.113 16.1496C155.299 16.1496 156.184 16.7401 156.602 17.7313H151.6Z" fill="#3C3C3C"></path><defs><linearGradient id="paint0_linear_26_6109" x1="23.6463" y1="0" x2="23.6463" y2="33" gradientUnits="userSpaceOnUse"><stop stop-color="#00C6FB"></stop><stop offset="1" stop-color="#007AFF"></stop></linearGradient></defs></svg> 